/* XPM */
static char * close_inactive_xpm[] = {
"28 28 24 1",
" 	c None",
".	c #21252B",
"+	c #353B48",
"@	c #2F343F",
"#	c #3E434D",
"$	c #818488",
"%	c #ADAEAF",
"&	c #BCBCBC",
"*	c #ACADAE",
"=	c #818388",
"-	c #676A71",
";	c #BBBBBC",
">	c #D0D0D0",
",	c #D4D4D4",
"'	c #BCBCBD",
")	c #656970",
"!	c #C4C4C4",
"~	c #3D424C",
"{	c #ADADAF",
"]	c #BDBDBD",
"^	c #BABABA",
"/	c #3D414B",
"(	c #C3C3C3",
"_	c #65686F",
"............................",
"++++++++++++++++++++++++++++",
"@@@@@@@@@@@@@@@@@@@@@@@@@@@@",
"@@@@@@@@@@@@@@@@@@@@@@@@@@@@",
"@@@@@@@@@@@@@@@@@@@@@@@@@@@@",
"@@@@@@@@@@@@@@@@@@@@@@@@@@@@",
"@@@@@@@@@@@@@@@@@@@@@@@@@@@@",
"@@@@@@@@@@#$%&&*=#@@@@@@@@@@",
"@@@@@@@@@-;>,,,,>')@@@@@@@@@",
"@@@@@@@@-!,,,,,,,,!)@@@@@@@@",
"@@@@@@@#;,,,,,,,,,,;~@@@@@@@",
"@@@@@@@$>,,,,,,,,,,>=@@@@@@@",
"@@@@@@@{,,,,,,,,,,,,*@@@@@@@",
"@@@@@@@],,,,,,,,,,,,]@@@@@@@",
"@@@@@@@],,,,,,,,,,,,'@@@@@@@",
"@@@@@@@%,,,,,,,,,,,,*@@@@@@@",
"@@@@@@@=>,,,,,,,,,,>=@@@@@@@",
"@@@@@@@#',,,,,,,,,,^/@@@@@@@",
"@@@@@@@@)!,,,,,,,,(_@@@@@@@@",
"@@@@@@@@@);>,,,,>^_@@@@@@@@@",
"@@@@@@@@@@~=%]]%=/@@@@@@@@@@",
"@@@@@@@@@@@@@@@@@@@@@@@@@@@@",
"@@@@@@@@@@@@@@@@@@@@@@@@@@@@",
"@@@@@@@@@@@@@@@@@@@@@@@@@@@@",
"@@@@@@@@@@@@@@@@@@@@@@@@@@@@",
"@@@@@@@@@@@@@@@@@@@@@@@@@@@@",
"@@@@@@@@@@@@@@@@@@@@@@@@@@@@",
"@@@@@@@@@@@@@@@@@@@@@@@@@@@@"};
