/* XPM */
static char * maximize_inactive_xpm[] = {
"28 28 23 1",
" 	c None",
".	c #21252B",
"+	c #353B48",
"@	c #2F343F",
"#	c #3A3F49",
"$	c #74767C",
"%	c #A6A7A9",
"&	c #BBBBBB",
"*	c #A5A6A8",
"=	c #73767B",
"-	c #5B5E66",
";	c #B9BABA",
">	c #D0D0D0",
",	c #D4D4D4",
"'	c #BABBBB",
")	c #5A5D65",
"!	c #C4C4C4",
"~	c #3A3E48",
"{	c #73757B",
"]	c #B8B8B9",
"^	c #393D48",
"/	c #C3C3C3",
"(	c #595D64",
"............................",
"++++++++++++++++++++++++++++",
"@@@@@@@@@@@@@@@@@@@@@@@@@@@@",
"@@@@@@@@@@@@@@@@@@@@@@@@@@@@",
"@@@@@@@@@@@@@@@@@@@@@@@@@@@@",
"@@@@@@@@@@@@@@@@@@@@@@@@@@@@",
"@@@@@@@@@@@@@@@@@@@@@@@@@@@@",
"@@@@@@@@@@#$%&&*=#@@@@@@@@@@",
"@@@@@@@@@-;>,,,,>')@@@@@@@@@",
"@@@@@@@@-!,,,,,,,,!)@@@@@@@@",
"@@@@@@@#;,,,,,,,,,,;~@@@@@@@",
"@@@@@@@$>,,,,,,,,,,>=@@@@@@@",
"@@@@@@@%,,,,,,,,,,,,*@@@@@@@",
"@@@@@@@&,,,,,,,,,,,,&@@@@@@@",
"@@@@@@@&,,,,,,,,,,,,'@@@@@@@",
"@@@@@@@%,,,,,,,,,,,,*@@@@@@@",
"@@@@@@@=>,,,,,,,,,,>{@@@@@@@",
"@@@@@@@#',,,,,,,,,,]^@@@@@@@",
"@@@@@@@@)!,,,,,,,,/(@@@@@@@@",
"@@@@@@@@@);>,,,,>](@@@@@@@@@",
"@@@@@@@@@@~=%&&%{^@@@@@@@@@@",
"@@@@@@@@@@@@@@@@@@@@@@@@@@@@",
"@@@@@@@@@@@@@@@@@@@@@@@@@@@@",
"@@@@@@@@@@@@@@@@@@@@@@@@@@@@",
"@@@@@@@@@@@@@@@@@@@@@@@@@@@@",
"@@@@@@@@@@@@@@@@@@@@@@@@@@@@",
"@@@@@@@@@@@@@@@@@@@@@@@@@@@@",
"@@@@@@@@@@@@@@@@@@@@@@@@@@@@"};
